inDegrees=yes
name=ik_S51_A13_T02
DataType=double
version=3
OpenSimVersion=4.3-2021-08-27-4bc7ad9
endheader
time	pelvis_tilt	pelvis_list	pelvis_rotation	pelvis_tx	pelvis_ty	pelvis_tz	hip_flexion_r	hip_adduction_r	hip_rotation_r	knee_angle_r	knee_angle_r_beta	ankle_angle_r	subtalar_angle_r	mtp_angle_r	hip_flexion_l	hip_adduction_l	hip_rotation_l	knee_angle_l	knee_angle_l_beta	ankle_angle_l	subtalar_angle_l	mtp_angle_l	lumbar_extension	lumbar_bending	lumbar_rotation	arm_flex_r	arm_add_r	arm_rot_r	elbow_flex_r	pro_sup_r	wrist_flex_r	wrist_dev_r	arm_flex_l	arm_add_l	arm_rot_l	elbow_flex_l	pro_sup_l	wrist_flex_l	wrist_dev_l
3.320000000000003	-30.1497257991463	-40.11535596153525	-25.85198724620773	0	0.9399999999999999	0	45.80399469851879	-10.04892612630102	-9.227535615929165	54.76859726970699	0.9558923490551637	0	0	0	45.80399469851879	-10.04892612630102	-9.227535615929165	54.76859726970699	0.9558923490551637	0	0	0	24.60823524776811	49.10960200886381	27.99854327353302	80.76913774981756	-38.66898179953567	29.70070514638337	143.8336326593278	8.120574741759617	0	0	79.97613208080247	0.1671997641099414	12.95961808890988	20.21930291822479	119.8706522834674	0	0
3.340000000000003	-30.11416184240602	-40.05122465452331	-25.75922331128155	0	0.9399999999999999	0	45.80373150596406	-10.04887033205298	-9.228101299093776	54.76864813152688	0.9558932367613844	0	0	0	45.80373150596406	-10.04887033205298	-9.228101299093776	54.76864813152688	0.9558932367613844	0	0	0	24.56332362659297	49.10161244919342	27.91727024189094	80.13995076152727	-38.87075755584533	29.29006940334403	144.6726144629382	8.107771340107201	0	0	79.98274827561875	-0.03982492992123229	13.09089061815963	20.41327580826966	119.5635200173707	0	0
3.360000000000003	-29.87570491192313	-40.0028779649715	-25.37611957357254	0	0.9399999999999999	0	45.8032099029354	-10.04875970796311	-9.229222978285247	54.76874877326031	0.9558949932909976	0	0	0	45.8032099029354	-10.04875970796311	-9.229222978285247	54.76874877326031	0.9558949932909976	0	0	0	24.51999411177144	48.91905554832754	27.67528823973407	78.67742302307582	-39.62812601842231	27.07185041265068	147.0785262048283	5.897365303594984	0	0	79.68980621534382	-0.4834879840105266	14.04322701515211	20.21953746505461	115.6726084022006	0	0
3.380000000000003	-29.86977369978643	-39.92235373853546	-25.3065434594928	0	0.9399999999999999	0	45.80270526292627	-10.04865417685389	-9.230298795828205	54.76884712418796	0.9558967098385075	0	0	0	45.80270526292627	-10.04865417685389	-9.230298795828205	54.76884712418796	0.9558967098385075	0	0	0	24.45254675364764	48.90612440097136	27.59873890669641	78.20733974069964	-39.85516089087297	26.2623494293604	147.9894081135286	6.016018482821178	0	0	79.66902011388264	-0.7104069691456756	13.41954649230299	20.20645819733737	116.1608728011188	0	0
3.400000000000003	-29.95829724984664	-39.86888160969642	-25.44440070086689	0	0.9399999999999999	0	45.80166502815263	-10.04843690247785	-9.232516139841438	54.76904940390818	0.9559002402856354	0	0	0	45.80166502815263	-10.04843690247785	-9.232516139841438	54.76904940390818	0.9559002402856354	0	0	0	24.43350433861719	48.93474515124916	27.69072948795854	77.45538118928594	-39.96790690406885	25.40446223395523	149.243705462459	9.608043915756449	0	0	79.68897569360161	-0.7511124863187646	13.29998856277909	19.39918171499842	113.2610039451263	0	0
3.420000000000003	-30.12438317189106	-39.82929942792101	-25.69810529700706	0	0.9399999999999999	0	45.8012030711231	-10.04833963553551	-9.23350578544888	54.76913870378259	0.9559017988624654	0	0	0	45.8012030711231	-10.04833963553551	-9.23350578544888	54.76913870378259	0.9559017988624654	0	0	0	24.40193175962715	49.04618650347077	27.80092220260139	76.78562441370285	-40.2160288552507	25.25670192763275	150.1182495344595	10.60621910463848	0	0	80.15174678306835	-1.036498820734668	11.21143040517468	17.9824879847717	115.0993740998838	0	0
3.440000000000003	-30.11579319669918	-39.78989437106591	-25.72327541308933	0	0.9399999999999999	0	45.80068562754501	-10.04823134332901	-9.234610063786706	54.76923921190307	0.9559035530600929	0	0	0	45.80068562754501	-10.04823134332901	-9.234610063786706	54.76923921190307	0.9559035530600929	0	0	0	24.39134512973245	49.04904412978579	27.78554975868387	75.97604343358428	-40.47380197908798	25.13046681932212	151.37810030113	11.02629073890797	0	0	80.57617236937146	-1.556985138198805	10.08974711488583	16.55125354782644	117.1341255831451	0	0
3.460000000000003	-30.1956508014406	-39.75382311244557	-25.84765907993096	0	0.9399999999999999	0	45.80025472838794	-10.04814171185297	-9.235526150021345	54.76932329418789	0.9559050205728056	0	0	0	45.80025472838794	-10.04814171185297	-9.235526150021345	54.76932329418789	0.9559050205728056	0	0	0	24.37163356538915	49.1179045933691	27.84228387903362	75.18156078343344	-40.78220322245563	25.00666163159581	152.8048621677216	12.25841309624278	0	0	80.83368195776431	-1.902589466343933	9.159722491109354	15.77476264240653	118.2384415306602	0	0
3.480000000000003	-30.18559627573437	-39.71229573782506	-25.77329424986429	0	0.9399999999999999	0	45.80004812180328	-10.0480989037512	-9.23596436537637	54.76936370670052	0.95590572590421	0	0	0	45.80004812180328	-10.0480989037512	-9.23596436537637	54.76936370670052	0.95590572590421	0	0	0	24.32120578397974	49.07894584216198	27.76612940198315	75.25486196471391	-40.61451619088756	24.96987915558204	153.7137420358792	13.04958407925	0	0	80.94848272721697	-2.154406242218339	9.046917854775492	15.53710418674911	118.5975049598291	0	0
3.500000000000003	-30.10231999131532	-39.65216546770358	-25.62764155972473	0	0.9399999999999999	0	45.79905505126136	-10.04789314386954	-9.23807232249076	54.76955719168645	0.9559091028542676	0	0	0	45.79905505126136	-10.04789314386954	-9.23807232249076	54.76955719168645	0.9559091028542676	0	0	0	24.30328519715995	49.02150668572081	27.69953220596041	74.53695509447205	-41.07055304723075	24.87954186386855	155.3924082338752	13.92622891314564	0	0	81.09865385909843	-2.485614142702213	8.673415339584412	15.10284781645791	119.6593588143048	0	0
3.520000000000003	-30.02467609680481	-39.59287990185707	-25.46284998402665	0	0.9399999999999999	0	45.79864529561248	-10.04780791845266	-9.238944130591392	54.76963682594388	0.9559104927342571	0	0	0	45.79864529561248	-10.04780791845266	-9.238944130591392	54.76963682594388	0.9559104927342571	0	0	0	24.26124787513782	48.97497106250714	27.5906647442741	73.82852275896705	-41.53217367217179	24.82712258506569	156.6449407813724	14.57368340191604	0	0	81.22540826348236	-2.879714117931177	8.706785905016238	15.09147794764466	120.5568335794966	0	0
3.540000000000003	-29.89730930518823	-39.54421480805797	-25.23406035206072	0	0.9399999999999999	0	45.79821780792747	-10.04771944276776	-9.239850900551456	54.76972019934495	0.9559119478746144	0	0	0	45.79821780792747	-10.04771944276776	-9.239850900551456	54.76972019934495	0.9559119478746144	0	0	0	24.21467588093448	48.85894741332325	27.43003704108941	73.09390213998074	-42.02479434535442	24.68170991583836	159.0922771858149	15.97136683691991	0	0	81.34487356245647	-3.248097119875002	9.09479803715039	15.19856122807829	121.3682072124826	0	0
3.560000000000003	-29.79912365080719	-39.48700612949214	-25.07058511081017	0	0.9399999999999999	0	45.79768990119531	-10.04760949808879	-9.240975624986053	54.76982241914731	0.9559137319467264	0	0	0	45.79768990119531	-10.04760949808879	-9.240975624986053	54.76982241914731	0.9559137319467264	0	0	0	24.16104427489119	48.76940289328723	27.28884807788625	72.32759145667366	-42.48089971767059	24.54202264355823	161.0131151940125	16.94779681833745	0	0	81.43545737839521	-3.659236817299539	9.632461234847634	15.36780774421835	121.746890996353	0	0
3.580000000000003	-29.70964006391049	-39.44251813008305	-24.90816677728333	0	0.9399999999999999	0	45.79723573602143	-10.04751524000511	-9.241941232881127	54.76991054938622	0.955915270109566	0	0	0	45.79723573602143	-10.04751524000511	-9.241941232881127	54.76991054938622	0.955915270109566	0	0	0	24.11253039613542	48.68736469106081	27.16031340251518	71.53820816216361	-42.98019634071225	24.48745084437208	162.8845785323998	17.66321577471285	0	0	81.57779231619494	-4.082550132903475	10.14449537389127	15.55061989340262	121.6560417174265	0	0
3.600000000000003	-29.63537634010823	-39.41520752956988	-24.78580999804855	0	0.9399999999999999	0	45.79674594627573	-10.04741367873167	-9.24298219723862	54.77000556965342	0.9559169285260847	0	0	0	45.79674594627573	-10.04741367873167	-9.24298219723862	54.77000556965342	0.9559169285260847	0	0	0	24.06312846837201	48.59883641141617	27.04344156878916	70.62079545102343	-43.41384016573222	24.39679836729457	164.2092695257457	18.32060770567033	0	0	81.78063199218612	-4.59254484001672	10.34956088208729	15.71931395810121	121.8638730554168	0	0
3.620000000000003	-29.61326338313841	-39.38380178464237	-24.70873273297381	0	0.9399999999999999	0	45.7963486004619	-10.04733168755656	-9.243824147373553	54.77008292612894	0.9559182786512803	0	0	0	45.7963486004619	-10.04733168755656	-9.243824147373553	54.77008292612894	0.9559182786512803	0	0	0	23.99026568976893	48.57631245652923	26.94892193949312	68.58540178365372	-44.14573521710978	24.15729519155172	166.7305678100968	19.84007315286664	0	0	82.06535361707999	-5.022900415926705	9.953913840811891	15.5599520625865	122.1051792599925	0	0
3.640000000000003	-29.55904704848813	-39.36691764436893	-24.66395847148927	0	0.9399999999999999	0	45.7957191158	-10.04720178451413	-9.245158392630469	54.77020531483073	0.9559204147370937	0	0	0	45.7957191158	-10.04720178451413	-9.245158392630469	54.77020531483073	0.9559204147370937	0	0	0	23.96406007490906	48.50732626097079	26.88157697553056	67.38756282641175	-44.50067317660562	23.75466466477651	168.1903719445486	20.42769537672563	0	0	82.43221754497542	-5.549504487719529	9.550442772106885	15.38787622754448	122.8646722053454	0	0
3.660000000000003	-29.61412695865096	-39.33333519333183	-24.72216984627972	0	0.9399999999999999	0	45.7953204573979	-10.04711943750047	-9.246004207626733	54.77028262222675	0.9559217640056904	0	0	0	45.7953204573979	-10.04711943750047	-9.246004207626733	54.77028262222675	0.9559217640056904	0	0	0	23.92261572661812	48.51719375522847	26.88288635800356	67.5428103644019	-44.47814508213781	23.8846911470386	168.7427632088195	19.12164339527578	0	0	82.77480401811066	-5.837021120552676	8.981001578057239	15.0060702472713	123.3827761485167	0	0
3.680000000000003	-29.45592148445345	-39.28881870848123	-24.48518379895819	0	0.9399999999999999	0	45.79435519858634	-10.04692046480026	-9.24805061413038	54.77046958877491	0.9559250271875468	0	0	0	45.79435519858634	-10.04692046480026	-9.24805061413038	54.77046958877491	0.9559250271875468	0	0	0	23.8817239103571	48.38744497820863	26.72450112436222	65.21272358518638	-45.36367444440977	22.77861519972059	171.1320461142011	17.98691044187847	0	0	83.09980460685506	-6.310871740266011	8.810924440701514	15.50314406958767	125.4404407980617	0	0
3.700000000000003	-29.35851598125484	-39.23874735333405	-24.35368661616559	0	0.9399999999999999	0	45.7937952732403	-10.0468050410819	-9.249237848939748	54.77057798635192	0.955926919082167	0	0	0	45.7937952732403	-10.0468050410819	-9.249237848939748	54.77057798635192	0.955926919082167	0	0	0	23.85110895106967	48.31914530449492	26.61635879152222	63.97507920768361	-45.78232541712354	21.96185747124248	172.8119220738834	17.42100292671517	0	0	83.21491611849649	-6.58829460935022	9.292497338006134	15.69590883576747	124.8426977920226	0	0
